<?xml version="1.0" encoding="utf-8"?>
<!-- Generator: Adobe Illustrator 16.0.0, SVG Export Plug-In . SVG Version: 6.00 Build 0)  -->
<!DOCTYPE svg PUBLIC "-//W3C//DTD SVG 1.1//EN" "http://www.w3.org/Graphics/SVG/1.1/DTD/svg11.dtd">
<svg version="1.1" id="Livello_1" xmlns="http://www.w3.org/2000/svg" xmlns:xlink="http://www.w3.org/1999/xlink" x="0px" y="0px"
	 width="120px" height="120px" viewBox="0 0 120 120" enable-background="new 0 0 120 120" xml:space="preserve">
<g>
	<g>
		<g>
			
				<rect x="23.354" y="59.604" fill="none" stroke="#FFFFFF" stroke-width="2.2" stroke-linecap="round" stroke-linejoin="round" stroke-miterlimit="10" width="8.892" height="34.844"/>
		</g>
		
			<polygon fill="none" stroke="#FFFFFF" stroke-width="2.2" stroke-linecap="round" stroke-linejoin="round" stroke-miterlimit="10" points="
			39.978,46.637 35.339,46.637 37.657,36.102 		"/>
		<g>
			<g>
				
					<polygon fill="none" stroke="#FFFFFF" stroke-width="2.2" stroke-linecap="round" stroke-linejoin="round" stroke-miterlimit="10" points="
					32.246,59.604 27.606,59.604 29.926,49.068 				"/>
			</g>
		</g>
		
			<line fill="none" stroke="#FFFFFF" stroke-width="2.2" stroke-linecap="round" stroke-linejoin="round" stroke-miterlimit="10" x1="25.673" y1="49.068" x2="25.673" y2="44.611"/>
		
			<line fill="none" stroke="#FFFFFF" stroke-width="2.2" stroke-linecap="round" stroke-linejoin="round" stroke-miterlimit="10" x1="29.926" y1="49.068" x2="29.926" y2="44.611"/>
		<g>
			
				<rect x="43.07" y="42.586" fill="none" stroke="#FFFFFF" stroke-width="2.2" stroke-linecap="round" stroke-linejoin="round" stroke-miterlimit="10" width="8.892" height="51.861"/>
			<g>
				
					<polygon fill="none" stroke="#FFFFFF" stroke-width="2.2" stroke-linecap="round" stroke-linejoin="round" stroke-miterlimit="10" points="
					47.711,42.586 43.07,42.586 45.39,32.049 				"/>
			</g>
			<g>
				
					<polygon fill="none" stroke="#FFFFFF" stroke-width="2.2" stroke-linecap="round" stroke-linejoin="round" stroke-miterlimit="10" points="
					51.962,42.586 47.323,42.586 49.643,32.049 				"/>
			</g>
		</g>
		
			<line fill="none" stroke="#FFFFFF" stroke-width="2.2" stroke-linecap="round" stroke-linejoin="round" stroke-miterlimit="10" x1="45.39" y1="32.049" x2="45.39" y2="27.592"/>
		
			<line fill="none" stroke="#FFFFFF" stroke-width="2.2" stroke-linecap="round" stroke-linejoin="round" stroke-miterlimit="10" x1="49.643" y1="32.049" x2="49.643" y2="27.592"/>
		
			<line fill="none" stroke="#FFFFFF" stroke-width="2.2" stroke-linecap="round" stroke-linejoin="round" stroke-miterlimit="10" x1="60.854" y1="34.887" x2="52.087" y2="42.586"/>
		
			<line fill="none" stroke="#FFFFFF" stroke-width="2.2" stroke-linecap="round" stroke-linejoin="round" stroke-miterlimit="10" x1="42.684" y1="50.844" x2="32.246" y2="60.008"/>
		
			<polygon fill="none" stroke="#FFFFFF" stroke-width="2.2" stroke-linecap="round" stroke-linejoin="round" stroke-miterlimit="10" points="
			39.591,76.219 35.726,76.219 35.726,70.137 37.657,68.113 39.591,70.137 		"/>
		
			<polygon fill="none" stroke="#FFFFFF" stroke-width="2.2" stroke-linecap="round" stroke-linejoin="round" stroke-miterlimit="10" points="
			39.591,87.967 35.726,87.967 35.726,81.889 37.657,79.865 39.591,81.889 		"/>
		
			<polygon fill="none" stroke="#FFFFFF" stroke-width="2.2" stroke-linecap="round" stroke-linejoin="round" stroke-miterlimit="10" points="
			39.978,53.121 35.339,57.172 35.339,46.637 39.978,46.637 		"/>
		
			<rect x="56.602" y="82.297" fill="none" stroke="#FFFFFF" stroke-width="2.2" stroke-linecap="round" stroke-linejoin="round" stroke-miterlimit="10" width="8.505" height="12.15"/>
		<g>
			
				<path fill="none" stroke="#FFFFFF" stroke-width="2.2" stroke-linecap="round" stroke-linejoin="round" stroke-miterlimit="10" d="
				M56.602,82.297c0-2.463,2.754-4.459,4.252-4.459c1.522,0,4.253,1.996,4.253,4.459"/>
			
				<rect x="57.375" y="58.793" fill="none" stroke="#FFFFFF" stroke-width="2.2" stroke-linecap="round" stroke-linejoin="round" stroke-miterlimit="10" width="6.959" height="8.914"/>
			
				<path fill="none" stroke="#FFFFFF" stroke-width="2.2" stroke-linecap="round" stroke-linejoin="round" stroke-miterlimit="10" d="
				M57.375,58.793c0-2.463,3.479-3.646,3.479-3.646s3.48,1.184,3.48,3.646"/>
			
				<rect x="89.462" y="59.604" fill="none" stroke="#FFFFFF" stroke-width="2.2" stroke-linecap="round" stroke-linejoin="round" stroke-miterlimit="10" width="8.893" height="34.844"/>
			<g>
				
					<polygon fill="none" stroke="#FFFFFF" stroke-width="2.2" stroke-linecap="round" stroke-linejoin="round" stroke-miterlimit="10" points="
					93.715,59.604 98.354,59.604 96.035,49.068 				"/>
			</g>
			
				<polygon fill="none" stroke="#FFFFFF" stroke-width="2.2" stroke-linecap="round" stroke-linejoin="round" stroke-miterlimit="10" points="
				81.73,46.637 86.369,46.637 84.05,36.102 			"/>
			<g>
				
					<polygon fill="none" stroke="#FFFFFF" stroke-width="2.2" stroke-linecap="round" stroke-linejoin="round" stroke-miterlimit="10" points="
					89.462,59.604 94.102,59.604 91.782,49.068 				"/>
			</g>
			
				<line fill="none" stroke="#FFFFFF" stroke-width="2.2" stroke-linecap="round" stroke-linejoin="round" stroke-miterlimit="10" x1="96.035" y1="49.068" x2="96.035" y2="44.611"/>
			
				<line fill="none" stroke="#FFFFFF" stroke-width="2.2" stroke-linecap="round" stroke-linejoin="round" stroke-miterlimit="10" x1="91.782" y1="49.068" x2="91.782" y2="44.611"/>
			
				<rect x="69.745" y="42.586" fill="none" stroke="#FFFFFF" stroke-width="2.2" stroke-linecap="round" stroke-linejoin="round" stroke-miterlimit="10" width="8.893" height="51.861"/>
			<g>
				
					<polygon fill="none" stroke="#FFFFFF" stroke-width="2.2" stroke-linecap="round" stroke-linejoin="round" stroke-miterlimit="10" points="
					73.998,42.586 78.638,42.586 76.318,32.049 				"/>
			</g>
			<g>
				
					<polygon fill="none" stroke="#FFFFFF" stroke-width="2.2" stroke-linecap="round" stroke-linejoin="round" stroke-miterlimit="10" points="
					69.745,42.586 74.385,42.586 72.065,32.049 				"/>
			</g>
			
				<line fill="none" stroke="#FFFFFF" stroke-width="2.2" stroke-linecap="round" stroke-linejoin="round" stroke-miterlimit="10" x1="76.318" y1="32.049" x2="76.318" y2="27.592"/>
			
				<line fill="none" stroke="#FFFFFF" stroke-width="2.2" stroke-linecap="round" stroke-linejoin="round" stroke-miterlimit="10" x1="72.065" y1="32.049" x2="72.065" y2="27.592"/>
			
				<line fill="none" stroke="#FFFFFF" stroke-width="2.2" stroke-linecap="round" stroke-linejoin="round" stroke-miterlimit="10" x1="60.854" y1="34.887" x2="69.622" y2="42.586"/>
			
				<line fill="none" stroke="#FFFFFF" stroke-width="2.2" stroke-linecap="round" stroke-linejoin="round" stroke-miterlimit="10" x1="79.024" y1="50.844" x2="89.462" y2="60.008"/>
			
				<polygon fill="none" stroke="#FFFFFF" stroke-width="2.2" stroke-linecap="round" stroke-linejoin="round" stroke-miterlimit="10" points="
				82.117,76.219 85.983,76.219 85.983,70.137 84.05,68.113 82.117,70.137 			"/>
			
				<polygon fill="none" stroke="#FFFFFF" stroke-width="2.2" stroke-linecap="round" stroke-linejoin="round" stroke-miterlimit="10" points="
				82.117,87.967 85.983,87.967 85.983,81.889 84.05,79.865 82.117,81.889 			"/>
			
				<polygon fill="none" stroke="#FFFFFF" stroke-width="2.2" stroke-linecap="round" stroke-linejoin="round" stroke-miterlimit="10" points="
				81.73,53.121 86.369,57.172 86.369,46.637 81.73,46.637 			"/>
			
				<rect x="56.602" y="82.297" fill="none" stroke="#FFFFFF" stroke-width="2.2" stroke-linecap="round" stroke-linejoin="round" stroke-miterlimit="10" width="8.505" height="12.15"/>
			
				<path fill="none" stroke="#FFFFFF" stroke-width="2.2" stroke-linecap="round" stroke-linejoin="round" stroke-miterlimit="10" d="
				M65.106,82.297c0-2.463-2.755-4.459-4.253-4.459c-1.521,0-4.252,1.996-4.252,4.459"/>
			
				<line fill="none" stroke="#FFFFFF" stroke-width="2.2" stroke-linecap="round" stroke-linejoin="round" stroke-miterlimit="10" x1="60.854" y1="35.291" x2="60.854" y2="27.188"/>
			
				<line fill="none" stroke="#FFFFFF" stroke-width="2.2" stroke-linecap="round" stroke-linejoin="round" stroke-miterlimit="10" x1="59.694" y1="29.617" x2="62.014" y2="29.617"/>
			
				<polygon fill="none" stroke="#FFFFFF" stroke-width="2.2" stroke-linecap="round" stroke-linejoin="round" stroke-miterlimit="10" points="
				27.993,59.604 23.354,59.604 25.673,49.068 			"/>
			
				<polygon fill="none" stroke="#FFFFFF" stroke-width="2.2" stroke-linecap="round" stroke-linejoin="round" stroke-miterlimit="10" points="
				32.246,59.604 27.606,59.604 29.926,49.068 			"/>
			
				<polygon fill="none" stroke="#FFFFFF" stroke-width="2.2" stroke-linecap="round" stroke-linejoin="round" stroke-miterlimit="10" points="
				93.715,59.604 98.354,59.604 96.035,49.068 			"/>
			
				<polygon fill="none" stroke="#FFFFFF" stroke-width="2.2" stroke-linecap="round" stroke-linejoin="round" stroke-miterlimit="10" points="
				89.462,59.604 94.102,59.604 91.782,49.068 			"/>
			
				<polygon fill="none" stroke="#FFFFFF" stroke-width="2.2" stroke-linecap="round" stroke-linejoin="round" stroke-miterlimit="10" points="
				73.998,42.586 78.638,42.586 76.318,32.049 			"/>
			
				<polygon fill="none" stroke="#FFFFFF" stroke-width="2.2" stroke-linecap="round" stroke-linejoin="round" stroke-miterlimit="10" points="
				69.745,42.586 74.385,42.586 72.065,32.049 			"/>
		</g>
	</g>
	
		<line fill="none" stroke="#FFFFFF" stroke-width="2.2" stroke-linecap="round" stroke-linejoin="round" stroke-miterlimit="10" x1="31.816" y1="94.447" x2="95.308" y2="94.447"/>
</g>
</svg>
