<?xml version="1.0" encoding="utf-8"?>
<!-- Generator: Adobe Illustrator 16.0.0, SVG Export Plug-In . SVG Version: 6.00 Build 0)  -->
<!DOCTYPE svg PUBLIC "-//W3C//DTD SVG 1.1//EN" "http://www.w3.org/Graphics/SVG/1.1/DTD/svg11.dtd">
<svg version="1.1" id="Livello_1" xmlns="http://www.w3.org/2000/svg" xmlns:xlink="http://www.w3.org/1999/xlink" x="0px" y="0px"
	 width="120px" height="120px" viewBox="0 0 120 120" enable-background="new 0 0 120 120" xml:space="preserve">
<g>
	<g>
		<g>
			
				<line fill="none" stroke="#FFFFFF" stroke-width="2.2" stroke-linecap="round" stroke-linejoin="round" stroke-miterlimit="10" x1="78.644" y1="62.55" x2="78.644" y2="93.995"/>
		</g>
	</g>
	<g>
		<g>
			
				<line fill="none" stroke="#FFFFFF" stroke-width="2.2" stroke-linecap="round" stroke-linejoin="round" stroke-miterlimit="10" x1="70.57" y1="85.496" x2="33.318" y2="85.496"/>
		</g>
	</g>
	<g>
		<g>
			
				<line fill="none" stroke="#FFFFFF" stroke-width="2.2" stroke-linecap="round" stroke-linejoin="round" stroke-miterlimit="10" x1="91.392" y1="62.55" x2="91.392" y2="93.995"/>
		</g>
	</g>
	
		<rect x="71.846" y="62.55" fill="none" stroke="#FFFFFF" stroke-width="2.2" stroke-linecap="round" stroke-linejoin="round" stroke-miterlimit="10" width="26.346" height="31.445"/>
	<path fill="none" stroke="#FFFFFF" stroke-width="2.2" stroke-linecap="round" stroke-linejoin="round" stroke-miterlimit="10" d="
		M71.846,62.55c0-15.76,8.923-19.549,8.923-19.549"/>
	<path fill="none" stroke="#FFFFFF" stroke-width="2.2" stroke-linecap="round" stroke-linejoin="round" stroke-miterlimit="10" d="
		M98.191,62.55c0-15.76-8.923-19.549-8.923-19.549"/>
	<path fill="none" stroke="#FFFFFF" stroke-width="2.2" stroke-linecap="round" stroke-linejoin="round" stroke-miterlimit="10" d="
		M88.418,69.774c0,1.876-1.523,3.399-3.4,3.399s-3.398-1.523-3.398-3.399c0-1.88,1.521-3.401,3.398-3.401
		S88.418,67.895,88.418,69.774"/>
	<path fill="none" stroke="#FFFFFF" stroke-width="2.2" stroke-linecap="round" stroke-linejoin="round" stroke-miterlimit="10" d="
		M72.694,66.373c1.877,0,3.4,1.521,3.4,3.401c0,1.876-1.523,3.399-3.4,3.399"/>
	<path fill="none" stroke="#FFFFFF" stroke-width="2.2" stroke-linecap="round" stroke-linejoin="round" stroke-miterlimit="10" d="
		M97.341,66.373c-1.877,0-3.398,1.521-3.398,3.401c0,1.876,1.521,3.399,3.398,3.399"/>
	<path fill="none" stroke="#FFFFFF" stroke-width="2.2" stroke-linecap="round" stroke-linejoin="round" stroke-miterlimit="10" d="
		M49.747,78.271c0,1.876-1.521,3.4-3.399,3.4s-3.399-1.524-3.399-3.4c0-1.877,1.521-3.4,3.399-3.4S49.747,76.395,49.747,78.271"/>
	<path fill="none" stroke="#FFFFFF" stroke-width="2.2" stroke-linecap="round" stroke-linejoin="round" stroke-miterlimit="10" d="
		M34.023,74.871c1.877,0,3.4,1.523,3.4,3.4c0,1.876-1.523,3.4-3.4,3.4"/>
	
		<rect x="80.769" y="37.479" fill="none" stroke="#FFFFFF" stroke-width="2.2" stroke-linecap="round" stroke-linejoin="round" stroke-miterlimit="10" width="8.5" height="5.522"/>
	
		<line fill="none" stroke="#FFFFFF" stroke-width="2.2" stroke-linecap="round" stroke-linejoin="round" stroke-miterlimit="10" x1="80.769" y1="34.503" x2="80.769" y2="37.479"/>
	
		<line fill="none" stroke="#FFFFFF" stroke-width="2.2" stroke-linecap="round" stroke-linejoin="round" stroke-miterlimit="10" x1="89.269" y1="37.479" x2="89.269" y2="34.503"/>
	
		<polygon fill="none" stroke="#FFFFFF" stroke-width="2.2" stroke-linecap="round" stroke-linejoin="round" stroke-miterlimit="10" points="
		82.044,37.249 85.018,26.004 87.992,37.249 	"/>
	
		<rect x="33.174" y="66.373" fill="none" stroke="#FFFFFF" stroke-width="2.2" stroke-linecap="round" stroke-linejoin="round" stroke-miterlimit="10" width="38.672" height="4.675"/>
	
		<rect x="21.275" y="48.527" fill="none" stroke="#FFFFFF" stroke-width="2.2" stroke-linecap="round" stroke-linejoin="round" stroke-miterlimit="10" width="11.898" height="45.468"/>
	
		<line fill="none" stroke="#FFFFFF" stroke-width="2.2" stroke-linecap="round" stroke-linejoin="round" stroke-miterlimit="10" x1="20" y1="48.527" x2="34.449" y2="48.527"/>
	
		<line fill="none" stroke="#FFFFFF" stroke-width="2.2" stroke-linecap="round" stroke-linejoin="round" stroke-miterlimit="10" x1="21.275" y1="48.527" x2="27.226" y2="40.927"/>
	
		<line fill="none" stroke="#FFFFFF" stroke-width="2.2" stroke-linecap="round" stroke-linejoin="round" stroke-miterlimit="10" x1="33.174" y1="48.527" x2="27.226" y2="40.927"/>
	
		<line fill="none" stroke="#FFFFFF" stroke-width="2.2" stroke-linecap="round" stroke-linejoin="round" stroke-miterlimit="10" x1="27.226" y1="40.502" x2="27.226" y2="35.377"/>
	<path fill="none" stroke="#FFFFFF" stroke-width="2.2" stroke-linecap="round" stroke-linejoin="round" stroke-miterlimit="10" d="
		M62.071,78.271c0,1.876-1.522,3.4-3.4,3.4c-1.877,0-3.399-1.524-3.399-3.4c0-1.877,1.522-3.4,3.399-3.4
		C60.549,74.871,62.071,76.395,62.071,78.271"/>
	<path fill="none" stroke="#FFFFFF" stroke-width="2.2" stroke-linecap="round" stroke-linejoin="round" stroke-miterlimit="10" d="
		M70.994,81.672c-1.877,0-3.399-1.524-3.399-3.4c0-1.877,1.522-3.4,3.399-3.4"/>
	
		<polygon fill="none" stroke="#FFFFFF" stroke-width="2.2" stroke-linecap="round" stroke-linejoin="round" stroke-miterlimit="10" points="
		29.35,62.123 25.101,62.123 25.101,55.75 27.226,53.625 29.35,55.75 	"/>
	
		<polygon fill="none" stroke="#FFFFFF" stroke-width="2.2" stroke-linecap="round" stroke-linejoin="round" stroke-miterlimit="10" points="
		29.35,74.871 25.101,74.871 25.101,68.497 27.226,66.373 29.35,68.497 	"/>
	
		<line fill="none" stroke="#FFFFFF" stroke-width="2.2" stroke-linecap="round" stroke-linejoin="round" stroke-miterlimit="10" x1="21.275" y1="93.995" x2="21.275" y2="83.797"/>
	
		<line fill="none" stroke="#FFFFFF" stroke-width="2.2" stroke-linecap="round" stroke-linejoin="round" stroke-miterlimit="10" x1="20.384" y1="93.995" x2="100" y2="93.995"/>
</g>
</svg>
