<?xml version="1.0" encoding="utf-8"?>
<!-- Generator: Adobe Illustrator 16.0.0, SVG Export Plug-In . SVG Version: 6.00 Build 0)  -->
<!DOCTYPE svg PUBLIC "-//W3C//DTD SVG 1.1//EN" "http://www.w3.org/Graphics/SVG/1.1/DTD/svg11.dtd">
<svg version="1.1" id="Livello_1" xmlns="http://www.w3.org/2000/svg" xmlns:xlink="http://www.w3.org/1999/xlink" x="0px" y="0px"
	 width="120px" height="120px" viewBox="0 0 120 120" enable-background="new 0 0 120 120" xml:space="preserve">
<g>
	<g>
		
			<line fill="none" stroke="#FFFFFF" stroke-width="2.2" stroke-linecap="round" stroke-linejoin="round" stroke-miterlimit="10" x1="63.559" y1="89.854" x2="63.559" y2="78.918"/>
		
			<line fill="none" stroke="#FFFFFF" stroke-width="2.2" stroke-linecap="round" stroke-linejoin="round" stroke-miterlimit="10" x1="56.441" y1="78.918" x2="56.441" y2="89.854"/>
		
			<path fill="none" stroke="#FFFFFF" stroke-width="2.2" stroke-linecap="round" stroke-linejoin="round" stroke-miterlimit="10" d="
			M63.559,78.918c0-1.498-2.307-3.689-3.558-3.689c-1.274,0-3.56,2.191-3.56,3.689"/>
	</g>
	<g>
		
			<line fill="none" stroke="#FFFFFF" stroke-width="2.2" stroke-linecap="round" stroke-linejoin="round" stroke-miterlimit="10" x1="61.569" y1="46.432" x2="61.569" y2="42.559"/>
		
			<line fill="none" stroke="#FFFFFF" stroke-width="2.2" stroke-linecap="round" stroke-linejoin="round" stroke-miterlimit="10" x1="58.432" y1="42.559" x2="58.432" y2="46.432"/>
		
			<path fill="none" stroke="#FFFFFF" stroke-width="2.2" stroke-linecap="round" stroke-linejoin="round" stroke-miterlimit="10" d="
			M61.569,42.559c0-0.533-1.017-1.307-1.568-1.307c-0.562,0-1.569,0.773-1.569,1.307"/>
	</g>
	<g>
		
			<path fill="none" stroke="#FFFFFF" stroke-width="2.2" stroke-linecap="round" stroke-linejoin="round" stroke-miterlimit="10" d="
			M64.025,31.652c0-1.67-0.716-4.109-4.025-4.109c-3.309,0-4.023,2.439-4.023,4.109"/>
	</g>
	<g>
		<g>
			
				<polyline fill="none" stroke="#FFFFFF" stroke-width="2.2" stroke-linecap="round" stroke-linejoin="round" stroke-miterlimit="10" points="
				82.281,64.297 82.281,67.863 85.896,67.863 85.896,64.297 			"/>
			
				<path fill="none" stroke="#FFFFFF" stroke-width="2.2" stroke-linecap="round" stroke-linejoin="round" stroke-miterlimit="10" d="
				M85.896,64.297c0-0.76-1.17-1.377-1.806-1.377c-0.648,0-1.809,0.617-1.809,1.377"/>
		</g>
		<g>
			
				<polyline fill="none" stroke="#FFFFFF" stroke-width="2.2" stroke-linecap="round" stroke-linejoin="round" stroke-miterlimit="10" points="
				90.82,64.297 90.82,67.863 94.435,67.863 94.435,64.297 			"/>
			
				<path fill="none" stroke="#FFFFFF" stroke-width="2.2" stroke-linecap="round" stroke-linejoin="round" stroke-miterlimit="10" d="
				M94.435,64.297c0-0.76-1.17-1.377-1.808-1.377c-0.645,0-1.807,0.617-1.807,1.377"/>
		</g>
		<g>
			
				<polyline fill="none" stroke="#FFFFFF" stroke-width="2.2" stroke-linecap="round" stroke-linejoin="round" stroke-miterlimit="10" points="
				73.742,64.297 73.742,67.863 77.357,67.863 77.357,64.297 			"/>
			
				<path fill="none" stroke="#FFFFFF" stroke-width="2.2" stroke-linecap="round" stroke-linejoin="round" stroke-miterlimit="10" d="
				M77.357,64.297c0-0.76-1.171-1.377-1.807-1.377c-0.646,0-1.809,0.617-1.809,1.377"/>
		</g>
		<g>
			
				<polyline fill="none" stroke="#FFFFFF" stroke-width="2.2" stroke-linecap="round" stroke-linejoin="round" stroke-miterlimit="10" points="
				82.281,73.408 82.281,76.975 85.896,76.975 85.896,73.408 			"/>
			
				<path fill="none" stroke="#FFFFFF" stroke-width="2.2" stroke-linecap="round" stroke-linejoin="round" stroke-miterlimit="10" d="
				M85.896,73.408c0-0.76-1.17-1.377-1.806-1.377c-0.648,0-1.809,0.617-1.809,1.377"/>
		</g>
		<g>
			
				<polyline fill="none" stroke="#FFFFFF" stroke-width="2.2" stroke-linecap="round" stroke-linejoin="round" stroke-miterlimit="10" points="
				90.82,73.408 90.82,76.975 94.435,76.975 94.435,73.408 			"/>
			
				<path fill="none" stroke="#FFFFFF" stroke-width="2.2" stroke-linecap="round" stroke-linejoin="round" stroke-miterlimit="10" d="
				M94.435,73.408c0-0.76-1.17-1.377-1.808-1.377c-0.645,0-1.807,0.617-1.807,1.377"/>
		</g>
		<g>
			
				<polyline fill="none" stroke="#FFFFFF" stroke-width="2.2" stroke-linecap="round" stroke-linejoin="round" stroke-miterlimit="10" points="
				73.742,73.408 73.742,76.975 77.357,76.975 77.357,73.408 			"/>
			
				<path fill="none" stroke="#FFFFFF" stroke-width="2.2" stroke-linecap="round" stroke-linejoin="round" stroke-miterlimit="10" d="
				M77.357,73.408c0-0.76-1.171-1.377-1.807-1.377c-0.646,0-1.809,0.617-1.809,1.377"/>
		</g>
		<g>
			
				<line fill="none" stroke="#FFFFFF" stroke-width="2.2" stroke-linecap="round" stroke-linejoin="round" stroke-miterlimit="10" x1="85.896" y1="89.854" x2="85.896" y2="81.764"/>
			
				<line fill="none" stroke="#FFFFFF" stroke-width="2.2" stroke-linecap="round" stroke-linejoin="round" stroke-miterlimit="10" x1="82.281" y1="81.764" x2="82.281" y2="89.854"/>
			
				<path fill="none" stroke="#FFFFFF" stroke-width="2.2" stroke-linecap="round" stroke-linejoin="round" stroke-miterlimit="10" d="
				M85.896,81.764c0-0.762-1.17-1.727-1.806-1.727c-0.648,0-1.809,0.965-1.809,1.727"/>
		</g>
		<g>
			
				<line fill="none" stroke="#FFFFFF" stroke-width="2.2" stroke-linecap="round" stroke-linejoin="round" stroke-miterlimit="10" x1="94.435" y1="89.854" x2="94.435" y2="81.764"/>
			
				<line fill="none" stroke="#FFFFFF" stroke-width="2.2" stroke-linecap="round" stroke-linejoin="round" stroke-miterlimit="10" x1="90.82" y1="81.764" x2="90.82" y2="89.854"/>
			
				<path fill="none" stroke="#FFFFFF" stroke-width="2.2" stroke-linecap="round" stroke-linejoin="round" stroke-miterlimit="10" d="
				M94.435,81.764c0-0.762-1.17-1.727-1.808-1.727c-0.645,0-1.807,0.965-1.807,1.727"/>
		</g>
		<g>
			
				<line fill="none" stroke="#FFFFFF" stroke-width="2.2" stroke-linecap="round" stroke-linejoin="round" stroke-miterlimit="10" x1="77.357" y1="89.854" x2="77.357" y2="81.764"/>
			
				<line fill="none" stroke="#FFFFFF" stroke-width="2.2" stroke-linecap="round" stroke-linejoin="round" stroke-miterlimit="10" x1="73.742" y1="81.764" x2="73.742" y2="89.854"/>
			
				<path fill="none" stroke="#FFFFFF" stroke-width="2.2" stroke-linecap="round" stroke-linejoin="round" stroke-miterlimit="10" d="
				M77.357,81.764c0-0.762-1.171-1.727-1.807-1.727c-0.646,0-1.809,0.965-1.809,1.727"/>
		</g>
		<g>
			
				<polyline fill="none" stroke="#FFFFFF" stroke-width="2.2" stroke-linecap="round" stroke-linejoin="round" stroke-miterlimit="10" points="
				34.104,64.297 34.104,67.863 37.719,67.863 37.719,64.297 			"/>
			
				<path fill="none" stroke="#FFFFFF" stroke-width="2.2" stroke-linecap="round" stroke-linejoin="round" stroke-miterlimit="10" d="
				M37.719,64.297c0-0.76-1.171-1.377-1.809-1.377c-0.646,0-1.806,0.617-1.806,1.377"/>
		</g>
		<g>
			
				<polyline fill="none" stroke="#FFFFFF" stroke-width="2.2" stroke-linecap="round" stroke-linejoin="round" stroke-miterlimit="10" points="
				42.643,64.297 42.643,67.863 46.257,67.863 46.257,64.297 			"/>
			
				<path fill="none" stroke="#FFFFFF" stroke-width="2.2" stroke-linecap="round" stroke-linejoin="round" stroke-miterlimit="10" d="
				M46.257,64.297c0-0.76-1.171-1.377-1.808-1.377c-0.646,0-1.807,0.617-1.807,1.377"/>
		</g>
		<g>
			
				<polyline fill="none" stroke="#FFFFFF" stroke-width="2.2" stroke-linecap="round" stroke-linejoin="round" stroke-miterlimit="10" points="
				25.565,64.297 25.565,67.863 29.18,67.863 29.18,64.297 			"/>
			
				<path fill="none" stroke="#FFFFFF" stroke-width="2.2" stroke-linecap="round" stroke-linejoin="round" stroke-miterlimit="10" d="
				M29.18,64.297c0-0.76-1.17-1.377-1.807-1.377c-0.646,0-1.808,0.617-1.808,1.377"/>
		</g>
		<g>
			
				<polyline fill="none" stroke="#FFFFFF" stroke-width="2.2" stroke-linecap="round" stroke-linejoin="round" stroke-miterlimit="10" points="
				34.104,73.408 34.104,76.975 37.719,76.975 37.719,73.408 			"/>
			
				<path fill="none" stroke="#FFFFFF" stroke-width="2.2" stroke-linecap="round" stroke-linejoin="round" stroke-miterlimit="10" d="
				M37.719,73.408c0-0.76-1.171-1.377-1.809-1.377c-0.646,0-1.806,0.617-1.806,1.377"/>
		</g>
		<g>
			
				<polyline fill="none" stroke="#FFFFFF" stroke-width="2.2" stroke-linecap="round" stroke-linejoin="round" stroke-miterlimit="10" points="
				42.643,73.408 42.643,76.975 46.257,76.975 46.257,73.408 			"/>
			
				<path fill="none" stroke="#FFFFFF" stroke-width="2.2" stroke-linecap="round" stroke-linejoin="round" stroke-miterlimit="10" d="
				M46.257,73.408c0-0.76-1.171-1.377-1.808-1.377c-0.646,0-1.807,0.617-1.807,1.377"/>
		</g>
		<g>
			
				<polyline fill="none" stroke="#FFFFFF" stroke-width="2.2" stroke-linecap="round" stroke-linejoin="round" stroke-miterlimit="10" points="
				25.565,73.408 25.565,76.975 29.18,76.975 29.18,73.408 			"/>
			
				<path fill="none" stroke="#FFFFFF" stroke-width="2.2" stroke-linecap="round" stroke-linejoin="round" stroke-miterlimit="10" d="
				M29.18,73.408c0-0.76-1.17-1.377-1.807-1.377c-0.646,0-1.808,0.617-1.808,1.377"/>
		</g>
		<g>
			
				<line fill="none" stroke="#FFFFFF" stroke-width="2.2" stroke-linecap="round" stroke-linejoin="round" stroke-miterlimit="10" x1="37.719" y1="89.854" x2="37.719" y2="81.764"/>
			
				<line fill="none" stroke="#FFFFFF" stroke-width="2.2" stroke-linecap="round" stroke-linejoin="round" stroke-miterlimit="10" x1="34.104" y1="81.764" x2="34.104" y2="89.854"/>
			
				<path fill="none" stroke="#FFFFFF" stroke-width="2.2" stroke-linecap="round" stroke-linejoin="round" stroke-miterlimit="10" d="
				M37.719,81.764c0-0.762-1.171-1.727-1.809-1.727c-0.646,0-1.806,0.965-1.806,1.727"/>
		</g>
		<g>
			
				<line fill="none" stroke="#FFFFFF" stroke-width="2.2" stroke-linecap="round" stroke-linejoin="round" stroke-miterlimit="10" x1="46.257" y1="89.854" x2="46.257" y2="81.764"/>
			
				<line fill="none" stroke="#FFFFFF" stroke-width="2.2" stroke-linecap="round" stroke-linejoin="round" stroke-miterlimit="10" x1="42.643" y1="81.764" x2="42.643" y2="89.854"/>
			
				<path fill="none" stroke="#FFFFFF" stroke-width="2.2" stroke-linecap="round" stroke-linejoin="round" stroke-miterlimit="10" d="
				M46.257,81.764c0-0.762-1.171-1.727-1.808-1.727c-0.646,0-1.807,0.965-1.807,1.727"/>
		</g>
		<g>
			
				<line fill="none" stroke="#FFFFFF" stroke-width="2.2" stroke-linecap="round" stroke-linejoin="round" stroke-miterlimit="10" x1="29.18" y1="89.854" x2="29.18" y2="81.764"/>
			
				<line fill="none" stroke="#FFFFFF" stroke-width="2.2" stroke-linecap="round" stroke-linejoin="round" stroke-miterlimit="10" x1="25.565" y1="81.764" x2="25.565" y2="89.854"/>
			
				<path fill="none" stroke="#FFFFFF" stroke-width="2.2" stroke-linecap="round" stroke-linejoin="round" stroke-miterlimit="10" d="
				M29.18,81.764c0-0.762-1.17-1.727-1.807-1.727c-0.646,0-1.808,0.965-1.808,1.727"/>
		</g>
	</g>
	<g>
		
			<rect x="20" y="59.01" fill="none" stroke="#FFFFFF" stroke-width="2.2" stroke-linecap="round" stroke-linejoin="round" stroke-miterlimit="10" width="32.001" height="30.932"/>
		
			<rect x="67.467" y="59.01" fill="none" stroke="#FFFFFF" stroke-width="2.2" stroke-linecap="round" stroke-linejoin="round" stroke-miterlimit="10" width="32.533" height="30.932"/>
		
			<polyline fill="none" stroke="#FFFFFF" stroke-width="2.2" stroke-linecap="round" stroke-linejoin="round" stroke-miterlimit="10" points="
			67.467,59.01 67.467,36.609 52.001,36.609 52.001,59.01 		"/>
		
			<polyline fill="none" stroke="#FFFFFF" stroke-width="2.2" stroke-linecap="round" stroke-linejoin="round" stroke-miterlimit="10" points="
			52.001,59.01 52.001,89.941 67.467,89.941 67.467,59.01 		"/>
	</g>
	
		<circle fill="none" stroke="#FFFFFF" stroke-width="2.2" stroke-linecap="round" stroke-linejoin="round" stroke-miterlimit="10" cx="60" cy="56.109" r="4.3"/>
	
		<line fill="none" stroke="#FFFFFF" stroke-width="2.2" stroke-linecap="round" stroke-linejoin="round" stroke-miterlimit="10" x1="52.268" y1="46.742" x2="66.732" y2="46.742"/>
	
		<line fill="none" stroke="#FFFFFF" stroke-width="2.2" stroke-linecap="round" stroke-linejoin="round" stroke-miterlimit="10" x1="52.268" y1="68.076" x2="66.732" y2="68.076"/>
	
		<rect x="56.001" y="31.809" fill="none" stroke="#FFFFFF" stroke-width="2.2" stroke-linecap="round" stroke-linejoin="round" stroke-miterlimit="10" width="7.999" height="4.801"/>
</g>
</svg>
