<?xml version="1.0" encoding="utf-8"?>
<!-- Generator: Adobe Illustrator 16.0.0, SVG Export Plug-In . SVG Version: 6.00 Build 0)  -->
<!DOCTYPE svg PUBLIC "-//W3C//DTD SVG 1.1//EN" "http://www.w3.org/Graphics/SVG/1.1/DTD/svg11.dtd">
<svg version="1.1" id="Livello_1" xmlns="http://www.w3.org/2000/svg" xmlns:xlink="http://www.w3.org/1999/xlink" x="0px" y="0px"
	 width="120px" height="120px" viewBox="0 0 120 120" enable-background="new 0 0 120 120" xml:space="preserve">
<g>
	
		<line fill="none" stroke="#FFFFFF" stroke-width="2.2" stroke-linecap="round" stroke-linejoin="round" stroke-miterlimit="10" x1="19.858" y1="69.058" x2="19.858" y2="87.067"/>
	
		<line fill="none" stroke="#FFFFFF" stroke-width="2.2" stroke-linecap="round" stroke-linejoin="round" stroke-miterlimit="10" x1="19.858" y1="50.69" x2="19.858" y2="69.058"/>
	
		<line fill="none" stroke="#FFFFFF" stroke-width="2.2" stroke-linecap="round" stroke-linejoin="round" stroke-miterlimit="10" x1="19.858" y1="32.682" x2="19.858" y2="50.69"/>
	
		<polyline fill="none" stroke="#FFFFFF" stroke-width="2.2" stroke-linecap="round" stroke-linejoin="round" stroke-miterlimit="10" points="
		24.746,77.512 24.746,87.067 32.132,87.067 32.132,77.512 	"/>
	<path fill="none" stroke="#FFFFFF" stroke-width="2.2" stroke-linecap="round" stroke-linejoin="round" stroke-miterlimit="10" d="
		M32.132,77.512c0-2.039-2.393-3.692-3.693-3.692c-1.32,0-3.692,1.653-3.692,3.692"/>
	
		<polyline fill="none" stroke="#FFFFFF" stroke-width="2.2" stroke-linecap="round" stroke-linejoin="round" stroke-miterlimit="10" points="
		35.824,77.512 35.824,87.067 43.211,87.067 43.211,77.512 	"/>
	<path fill="none" stroke="#FFFFFF" stroke-width="2.2" stroke-linecap="round" stroke-linejoin="round" stroke-miterlimit="10" d="
		M43.211,77.512c0-2.039-2.393-3.692-3.693-3.692c-1.322,0-3.693,1.653-3.693,3.692"/>
	
		<polyline fill="none" stroke="#FFFFFF" stroke-width="2.2" stroke-linecap="round" stroke-linejoin="round" stroke-miterlimit="10" points="
		46.568,77.512 46.568,87.067 53.952,87.067 53.952,77.512 	"/>
	<path fill="none" stroke="#FFFFFF" stroke-width="2.2" stroke-linecap="round" stroke-linejoin="round" stroke-miterlimit="10" d="
		M53.952,77.512c0-2.039-2.391-3.692-3.691-3.692c-1.322,0-3.692,1.653-3.692,3.692"/>
	
		<line fill="none" stroke="#FFFFFF" stroke-width="2.2" stroke-linecap="round" stroke-linejoin="round" stroke-miterlimit="10" x1="24.746" y1="59.53" x2="24.746" y2="68.938"/>
	
		<line fill="none" stroke="#FFFFFF" stroke-width="2.2" stroke-linecap="round" stroke-linejoin="round" stroke-miterlimit="10" x1="32.132" y1="68.938" x2="32.132" y2="59.53"/>
	<path fill="none" stroke="#FFFFFF" stroke-width="2.2" stroke-linecap="round" stroke-linejoin="round" stroke-miterlimit="10" d="
		M32.132,59.53c0-2.04-2.393-3.693-3.693-3.693c-1.32,0-3.692,1.653-3.692,3.693"/>
	
		<line fill="none" stroke="#FFFFFF" stroke-width="2.2" stroke-linecap="round" stroke-linejoin="round" stroke-miterlimit="10" x1="35.824" y1="59.53" x2="35.824" y2="68.938"/>
	
		<line fill="none" stroke="#FFFFFF" stroke-width="2.2" stroke-linecap="round" stroke-linejoin="round" stroke-miterlimit="10" x1="43.211" y1="68.938" x2="43.211" y2="59.53"/>
	<path fill="none" stroke="#FFFFFF" stroke-width="2.2" stroke-linecap="round" stroke-linejoin="round" stroke-miterlimit="10" d="
		M43.211,59.53c0-2.04-2.393-3.693-3.693-3.693c-1.322,0-3.693,1.653-3.693,3.693"/>
	
		<line fill="none" stroke="#FFFFFF" stroke-width="2.2" stroke-linecap="round" stroke-linejoin="round" stroke-miterlimit="10" x1="24.746" y1="41.367" x2="24.746" y2="50.577"/>
	
		<line fill="none" stroke="#FFFFFF" stroke-width="2.2" stroke-linecap="round" stroke-linejoin="round" stroke-miterlimit="10" x1="32.132" y1="50.577" x2="32.132" y2="41.367"/>
	<path fill="none" stroke="#FFFFFF" stroke-width="2.2" stroke-linecap="round" stroke-linejoin="round" stroke-miterlimit="10" d="
		M32.132,41.367c0-2.039-2.393-3.691-3.693-3.691c-1.32,0-3.692,1.652-3.692,3.691"/>
	
		<line fill="none" stroke="#FFFFFF" stroke-width="2.2" stroke-linecap="round" stroke-linejoin="round" stroke-miterlimit="10" x1="35.824" y1="41.367" x2="35.824" y2="50.81"/>
	
		<line fill="none" stroke="#FFFFFF" stroke-width="2.2" stroke-linecap="round" stroke-linejoin="round" stroke-miterlimit="10" x1="43.211" y1="50.81" x2="43.211" y2="41.367"/>
	<path fill="none" stroke="#FFFFFF" stroke-width="2.2" stroke-linecap="round" stroke-linejoin="round" stroke-miterlimit="10" d="
		M43.211,41.367c0-2.039-2.393-3.691-3.693-3.691c-1.322,0-3.693,1.652-3.693,3.691"/>
	
		<line fill="none" stroke="#FFFFFF" stroke-width="2.2" stroke-linecap="round" stroke-linejoin="round" stroke-miterlimit="10" x1="46.568" y1="59.53" x2="46.568" y2="68.938"/>
	
		<line fill="none" stroke="#FFFFFF" stroke-width="2.2" stroke-linecap="round" stroke-linejoin="round" stroke-miterlimit="10" x1="53.952" y1="68.938" x2="53.952" y2="59.53"/>
	<path fill="none" stroke="#FFFFFF" stroke-width="2.2" stroke-linecap="round" stroke-linejoin="round" stroke-miterlimit="10" d="
		M53.952,59.53c0-2.04-2.391-3.693-3.691-3.693c-1.322,0-3.692,1.653-3.692,3.693"/>
	
		<line fill="none" stroke="#FFFFFF" stroke-width="2.2" stroke-linecap="round" stroke-linejoin="round" stroke-miterlimit="10" x1="81.817" y1="70.53" x2="81.817" y2="65.183"/>
	
		<line fill="none" stroke="#FFFFFF" stroke-width="2.2" stroke-linecap="round" stroke-linejoin="round" stroke-miterlimit="10" x1="74.431" y1="65.183" x2="74.431" y2="70.53"/>
	<path fill="none" stroke="#FFFFFF" stroke-width="2.2" stroke-linecap="round" stroke-linejoin="round" stroke-miterlimit="10" d="
		M81.817,65.183c0-2.041-2.392-3.882-3.692-3.882c-1.322,0-3.693,1.841-3.693,3.882"/>
	
		<line fill="none" stroke="#FFFFFF" stroke-width="2.2" stroke-linecap="round" stroke-linejoin="round" stroke-miterlimit="10" x1="92.561" y1="70.53" x2="92.561" y2="65.183"/>
	
		<line fill="none" stroke="#FFFFFF" stroke-width="2.2" stroke-linecap="round" stroke-linejoin="round" stroke-miterlimit="10" x1="85.174" y1="65.183" x2="85.174" y2="70.53"/>
	<path fill="none" stroke="#FFFFFF" stroke-width="2.2" stroke-linecap="round" stroke-linejoin="round" stroke-miterlimit="10" d="
		M92.561,65.183c0-2.041-2.394-3.882-3.693-3.882c-1.321,0-3.693,1.841-3.693,3.882"/>
	<path fill="none" stroke="#FFFFFF" stroke-width="2.2" stroke-linecap="round" stroke-linejoin="round" stroke-miterlimit="10" d="
		M63.688,64.238"/>
	
		<line fill="none" stroke="#FFFFFF" stroke-width="2.2" stroke-linecap="round" stroke-linejoin="round" stroke-miterlimit="10" x1="71.074" y1="68.938" x2="71.074" y2="65.183"/>
	<path fill="none" stroke="#FFFFFF" stroke-width="2.2" stroke-linecap="round" stroke-linejoin="round" stroke-miterlimit="10" d="
		M71.074,65.183c0-2.041-2.393-3.882-3.692-3.882c-1.322,0-3.953,1.502-3.953,3.543"/>
	
		<polyline fill="none" stroke="#FFFFFF" stroke-width="2.2" stroke-linecap="round" stroke-linejoin="round" stroke-miterlimit="10" points="
		57.646,77.512 57.646,87.067 65.03,87.067 65.03,77.512 	"/>
	<path fill="none" stroke="#FFFFFF" stroke-width="2.2" stroke-linecap="round" stroke-linejoin="round" stroke-miterlimit="10" d="
		M65.03,77.512c0-2.039-2.392-3.692-3.691-3.692c-1.321,0-3.693,1.653-3.693,3.692"/>
	<path fill="none" stroke="#FFFFFF" stroke-width="2.2" stroke-linecap="round" stroke-linejoin="round" stroke-miterlimit="10" d="
		M74.431,76.995"/>
	
		<polyline fill="none" stroke="#FFFFFF" stroke-width="2.2" stroke-linecap="round" stroke-linejoin="round" stroke-miterlimit="10" points="
		77.372,87.067 81.817,87.067 81.817,76.995 	"/>
	<path fill="none" stroke="#FFFFFF" stroke-width="2.2" stroke-linecap="round" stroke-linejoin="round" stroke-miterlimit="10" d="
		M81.817,76.995c0-2.037-2.898-3.694-4.199-3.694c-1.322,0-4.178,1.657-4.178,3.694"/>
	
		<polyline fill="none" stroke="#FFFFFF" stroke-width="2.2" stroke-linecap="round" stroke-linejoin="round" stroke-miterlimit="10" points="
		85.174,76.995 85.174,87.067 92.561,87.067 92.561,76.995 	"/>
	<path fill="none" stroke="#FFFFFF" stroke-width="2.2" stroke-linecap="round" stroke-linejoin="round" stroke-miterlimit="10" d="
		M92.561,76.995c0-2.037-2.394-3.694-3.693-3.694c-1.321,0-3.693,1.657-3.693,3.694"/>
	<g>
		
			<line fill="none" stroke="#FFFFFF" stroke-width="2.2" stroke-linecap="round" stroke-linejoin="round" stroke-miterlimit="10" x1="22.738" y1="34.844" x2="22.738" y2="32.682"/>
	</g>
	<g>
		
			<line fill="none" stroke="#FFFFFF" stroke-width="2.2" stroke-linecap="round" stroke-linejoin="round" stroke-miterlimit="10" x1="25.979" y1="34.844" x2="25.979" y2="32.682"/>
	</g>
	<g>
		
			<line fill="none" stroke="#FFFFFF" stroke-width="2.2" stroke-linecap="round" stroke-linejoin="round" stroke-miterlimit="10" x1="39.667" y1="34.844" x2="39.667" y2="32.682"/>
	</g>
	<g>
		
			<line fill="none" stroke="#FFFFFF" stroke-width="2.2" stroke-linecap="round" stroke-linejoin="round" stroke-miterlimit="10" x1="42.908" y1="34.844" x2="42.908" y2="32.682"/>
	</g>
	<g>
		
			<line fill="none" stroke="#FFFFFF" stroke-width="2.2" stroke-linecap="round" stroke-linejoin="round" stroke-miterlimit="10" x1="29.582" y1="34.844" x2="29.582" y2="32.682"/>
	</g>
	<g>
		
			<line fill="none" stroke="#FFFFFF" stroke-width="2.2" stroke-linecap="round" stroke-linejoin="round" stroke-miterlimit="10" x1="32.823" y1="34.844" x2="32.823" y2="32.682"/>
	</g>
	<g>
		
			<line fill="none" stroke="#FFFFFF" stroke-width="2.2" stroke-linecap="round" stroke-linejoin="round" stroke-miterlimit="10" x1="36.063" y1="34.844" x2="36.063" y2="32.682"/>
	</g>
	<g>
		
			<line fill="none" stroke="#FFFFFF" stroke-width="2.2" stroke-linecap="round" stroke-linejoin="round" stroke-miterlimit="10" x1="22.738" y1="53.213" x2="22.738" y2="51.052"/>
	</g>
	<g>
		
			<line fill="none" stroke="#FFFFFF" stroke-width="2.2" stroke-linecap="round" stroke-linejoin="round" stroke-miterlimit="10" x1="25.979" y1="53.213" x2="25.979" y2="51.052"/>
	</g>
	<g>
		
			<line fill="none" stroke="#FFFFFF" stroke-width="2.2" stroke-linecap="round" stroke-linejoin="round" stroke-miterlimit="10" x1="39.667" y1="53.213" x2="39.667" y2="51.052"/>
	</g>
	<g>
		
			<line fill="none" stroke="#FFFFFF" stroke-width="2.2" stroke-linecap="round" stroke-linejoin="round" stroke-miterlimit="10" x1="42.908" y1="53.213" x2="42.908" y2="51.052"/>
	</g>
	<g>
		
			<line fill="none" stroke="#FFFFFF" stroke-width="2.2" stroke-linecap="round" stroke-linejoin="round" stroke-miterlimit="10" x1="29.582" y1="53.213" x2="29.582" y2="51.052"/>
	</g>
	<g>
		
			<line fill="none" stroke="#FFFFFF" stroke-width="2.2" stroke-linecap="round" stroke-linejoin="round" stroke-miterlimit="10" x1="32.823" y1="53.213" x2="32.823" y2="51.052"/>
	</g>
	<g>
		
			<line fill="none" stroke="#FFFFFF" stroke-width="2.2" stroke-linecap="round" stroke-linejoin="round" stroke-miterlimit="10" x1="36.063" y1="53.213" x2="36.063" y2="51.052"/>
	</g>
	<g>
		
			<line fill="none" stroke="#FFFFFF" stroke-width="2.2" stroke-linecap="round" stroke-linejoin="round" stroke-miterlimit="10" x1="46.148" y1="53.213" x2="46.148" y2="51.052"/>
	</g>
	<g>
		
			<line fill="none" stroke="#FFFFFF" stroke-width="2.2" stroke-linecap="round" stroke-linejoin="round" stroke-miterlimit="10" x1="49.753" y1="53.213" x2="49.753" y2="51.052"/>
	</g>
	<g>
		
			<line fill="none" stroke="#FFFFFF" stroke-width="2.2" stroke-linecap="round" stroke-linejoin="round" stroke-miterlimit="10" x1="52.992" y1="53.213" x2="52.992" y2="51.052"/>
	</g>
	<g>
		
			<line fill="none" stroke="#FFFFFF" stroke-width="2.2" stroke-linecap="round" stroke-linejoin="round" stroke-miterlimit="10" x1="56.233" y1="53.213" x2="56.233" y2="51.052"/>
	</g>
	<g>
		
			<line fill="none" stroke="#FFFFFF" stroke-width="2.2" stroke-linecap="round" stroke-linejoin="round" stroke-miterlimit="10" x1="22.738" y1="70.858" x2="22.738" y2="69.058"/>
	</g>
	<g>
		
			<line fill="none" stroke="#FFFFFF" stroke-width="2.2" stroke-linecap="round" stroke-linejoin="round" stroke-miterlimit="10" x1="25.979" y1="70.858" x2="25.979" y2="69.058"/>
	</g>
	<g>
		
			<line fill="none" stroke="#FFFFFF" stroke-width="2.2" stroke-linecap="round" stroke-linejoin="round" stroke-miterlimit="10" x1="39.667" y1="70.858" x2="39.667" y2="69.058"/>
	</g>
	<g>
		
			<line fill="none" stroke="#FFFFFF" stroke-width="2.2" stroke-linecap="round" stroke-linejoin="round" stroke-miterlimit="10" x1="42.908" y1="70.858" x2="42.908" y2="69.058"/>
	</g>
	<g>
		
			<line fill="none" stroke="#FFFFFF" stroke-width="2.2" stroke-linecap="round" stroke-linejoin="round" stroke-miterlimit="10" x1="29.582" y1="70.858" x2="29.582" y2="69.058"/>
	</g>
	<g>
		
			<line fill="none" stroke="#FFFFFF" stroke-width="2.2" stroke-linecap="round" stroke-linejoin="round" stroke-miterlimit="10" x1="32.823" y1="70.858" x2="32.823" y2="69.058"/>
	</g>
	<g>
		
			<line fill="none" stroke="#FFFFFF" stroke-width="2.2" stroke-linecap="round" stroke-linejoin="round" stroke-miterlimit="10" x1="36.063" y1="70.858" x2="36.063" y2="69.058"/>
	</g>
	<g>
		
			<line fill="none" stroke="#FFFFFF" stroke-width="2.2" stroke-linecap="round" stroke-linejoin="round" stroke-miterlimit="10" x1="46.148" y1="70.858" x2="46.148" y2="69.058"/>
	</g>
	<g>
		
			<line fill="none" stroke="#FFFFFF" stroke-width="2.2" stroke-linecap="round" stroke-linejoin="round" stroke-miterlimit="10" x1="49.753" y1="70.858" x2="49.753" y2="69.058"/>
	</g>
	<g>
		
			<line fill="none" stroke="#FFFFFF" stroke-width="2.2" stroke-linecap="round" stroke-linejoin="round" stroke-miterlimit="10" x1="52.992" y1="70.858" x2="52.992" y2="69.058"/>
	</g>
	<g>
		
			<line fill="none" stroke="#FFFFFF" stroke-width="2.2" stroke-linecap="round" stroke-linejoin="round" stroke-miterlimit="10" x1="56.233" y1="70.858" x2="56.233" y2="69.058"/>
	</g>
	<g>
		
			<line fill="none" stroke="#FFFFFF" stroke-width="2.2" stroke-linecap="round" stroke-linejoin="round" stroke-miterlimit="10" x1="64.158" y1="58.614" x2="64.158" y2="56.452"/>
	</g>
	<g>
		
			<line fill="none" stroke="#FFFFFF" stroke-width="2.2" stroke-linecap="round" stroke-linejoin="round" stroke-miterlimit="10" x1="67.399" y1="58.614" x2="67.399" y2="56.452"/>
	</g>
	<g>
		
			<line fill="none" stroke="#FFFFFF" stroke-width="2.2" stroke-linecap="round" stroke-linejoin="round" stroke-miterlimit="10" x1="80.726" y1="58.614" x2="80.726" y2="56.452"/>
	</g>
	<g>
		
			<line fill="none" stroke="#FFFFFF" stroke-width="2.2" stroke-linecap="round" stroke-linejoin="round" stroke-miterlimit="10" x1="84.327" y1="58.614" x2="84.327" y2="56.452"/>
	</g>
	<g>
		
			<line fill="none" stroke="#FFFFFF" stroke-width="2.2" stroke-linecap="round" stroke-linejoin="round" stroke-miterlimit="10" x1="70.641" y1="58.614" x2="70.641" y2="56.452"/>
	</g>
	<g>
		
			<line fill="none" stroke="#FFFFFF" stroke-width="2.2" stroke-linecap="round" stroke-linejoin="round" stroke-miterlimit="10" x1="74.242" y1="58.614" x2="74.242" y2="56.452"/>
	</g>
	<g>
		
			<line fill="none" stroke="#FFFFFF" stroke-width="2.2" stroke-linecap="round" stroke-linejoin="round" stroke-miterlimit="10" x1="77.483" y1="58.614" x2="77.483" y2="56.452"/>
	</g>
	<g>
		
			<line fill="none" stroke="#FFFFFF" stroke-width="2.2" stroke-linecap="round" stroke-linejoin="round" stroke-miterlimit="10" x1="87.569" y1="58.614" x2="87.569" y2="56.452"/>
	</g>
	<g>
		
			<line fill="none" stroke="#FFFFFF" stroke-width="2.2" stroke-linecap="round" stroke-linejoin="round" stroke-miterlimit="10" x1="90.811" y1="58.614" x2="90.811" y2="56.452"/>
	</g>
	<g>
		
			<line fill="none" stroke="#FFFFFF" stroke-width="2.2" stroke-linecap="round" stroke-linejoin="round" stroke-miterlimit="10" x1="59.836" y1="70.858" x2="59.836" y2="69.058"/>
	</g>
	<g>
		
			<line fill="none" stroke="#FFFFFF" stroke-width="2.2" stroke-linecap="round" stroke-linejoin="round" stroke-miterlimit="10" x1="63.078" y1="70.858" x2="63.078" y2="69.058"/>
	</g>
	<g>
		
			<line fill="none" stroke="#FFFFFF" stroke-width="2.2" stroke-linecap="round" stroke-linejoin="round" stroke-miterlimit="10" x1="96.933" y1="70.858" x2="71.059" y2="70.858"/>
	</g>
	<g>
		
			<line fill="none" stroke="#FFFFFF" stroke-width="2.2" stroke-linecap="round" stroke-linejoin="round" stroke-miterlimit="10" x1="66.319" y1="70.858" x2="66.319" y2="69.058"/>
	</g>
	
		<polyline fill="none" stroke="#FFFFFF" stroke-width="2.2" stroke-linecap="round" stroke-linejoin="round" stroke-miterlimit="10" points="
		17.696,32.682 45.225,32.682 52.61,50.808 	"/>
	
		<polyline fill="none" stroke="#FFFFFF" stroke-width="2.2" stroke-linecap="round" stroke-linejoin="round" stroke-miterlimit="10" points="
		17.696,50.69 57.646,50.69 65.03,68.818 	"/>
	
		<polyline fill="none" stroke="#FFFFFF" stroke-width="2.2" stroke-linecap="round" stroke-linejoin="round" stroke-miterlimit="10" points="
		18.058,69.058 70.067,69.058 77.466,87.187 	"/>
	
		<line fill="none" stroke="#FFFFFF" stroke-width="2.2" stroke-linecap="round" stroke-linejoin="round" stroke-miterlimit="10" x1="94.238" y1="56.579" x2="100.556" y2="86.905"/>
	
		<line fill="none" stroke="#FFFFFF" stroke-width="2.2" stroke-linecap="round" stroke-linejoin="round" stroke-miterlimit="10" x1="60.158" y1="56.452" x2="95.492" y2="56.452"/>
	
		<line fill="none" stroke="#FFFFFF" stroke-width="2.2" stroke-linecap="round" stroke-linejoin="round" stroke-miterlimit="10" x1="17.5" y1="87.319" x2="102.5" y2="87.319"/>
</g>
</svg>
